<?xml version="1.0" encoding="utf-8"?>
<!-- Generator: Adobe Illustrator 24.3.0, SVG Export Plug-In . SVG Version: 6.00 Build 0)  -->
<svg version="1.1" id="Layer_1" xmlns="http://www.w3.org/2000/svg" xmlns:xlink="http://www.w3.org/1999/xlink" x="0px" y="0px"
	 viewBox="0 0 85.3 85.3" style="enable-background:new 0 0 85.3 85.3;" xml:space="preserve">
<style type="text/css">
	.st0{fill:#FFFFFF;}
</style>
<circle class="st0" cx="42.7" cy="42.7" r="42.7"/>
<path d="M73.7,59.7c-2.3,0.6-3.7,0-4.9-1.9l-8.9-12.3l-1.3-1.7L48.2,57.9c-1.2,1.7-2.4,2.4-4.6,1.8l13.3-17.9L44.5,25.7
	c2.1-0.4,3.6-0.2,4.9,1.7l9.2,12.5l9.3-12.4c1.2-1.7,2.5-2.3,4.6-1.7l-4.8,6.4l-6.5,8.5c-0.8,1-0.7,1.6,0,2.6L73.7,59.7z M11.7,41.6
	l1.1-5.4c3-10.6,15.1-15,23.5-8.5c4.9,3.9,6.1,9.3,5.9,15.4H14.5c-0.4,11,7.5,17.6,17.6,14.2c3.5-1.2,5.6-4,6.7-7.4
	c0.5-1.7,1.4-2,3-1.5c-0.8,4.3-2.7,8-6.7,10.2c-5.9,3.4-14.4,2.3-18.9-2.4c-2.7-2.7-3.8-6.2-4.2-9.9c-0.1-0.6-0.2-1.2-0.3-1.8
	C11.7,43.6,11.7,42.6,11.7,41.6L11.7,41.6z M14.6,40.8h24.9c-0.2-7.9-5.1-13.6-11.9-13.6C20.2,27.1,14.9,32.6,14.6,40.8z"/>
</svg>
